<svg xmlns="http://www.w3.org/2000/svg" height="48px" viewBox="0 -960 960 960" width="48px" fill="#CACACC"><path d="M181-269.77v-504.46H80V-818h144.77v504.46H860v43.77H181Zm55.26 159.15q-23.71 0-39.87-15.91-16.16-15.92-16.16-39.49t16.04-39.81q16.04-16.25 40.53-16.25 22.32 0 38.61 16.66 16.28 16.66 16.28 39.75 0 23.57-16.63 39.31-16.63 15.74-38.8 15.74Zm73.12-287.53v-182.23h182.24v182.23H309.38Zm43.77-43.77h94.7v-94.7h-94.7v94.7Zm249.23 43.77v-182.23h182.24v182.23H602.38Zm43.77-43.77h94.7v-94.7h-94.7v94.7Zm118.43 315.39q-16.04-15.92-16.04-39.49t16.4-39.81q16.41-16.25 39.61-16.25 21.68 0 38.57 16.66Q860-188.76 860-165.67q0 23.57-17.19 39.31-17.19 15.74-39.69 15.74-22.5 0-38.54-15.91ZM353.15-441.92h94.7-94.7Zm293 0h94.7-94.7Z"/></svg>