<svg xmlns="http://www.w3.org/2000/svg" height="48px" viewBox="0 -960 960 960" width="48px" fill="#CACACC"><path d="M181.69-162.54V-233h122.39L200.85-589q-30.16-12.69-46.23-36.73-16.08-24.04-16.08-58.35 0-43.84 30.73-74.57 30.73-30.73 74.58-30.73 38.61 0 66.53 23.11 27.93 23.12 36.62 59.81h150.46v-63q0-9.62 5.77-15.5 5.77-5.89 15.62-5.89 9.92 0 14.34 5.2 4.43 5.19 4.89 13.11v10.77L614.62-834q8.23-7.23 18.92-8.96 10.69-1.73 22.38 3.5l154.85 73.15q5.92 2.69 10.42 10.62 4.5 7.92.04 15.84-4.46 7.16-12 8.89-7.54 1.73-14.46-1.73l-156.31-74-97.23 94.61v53.31L638.46-563l156.31-74.23q7.92-3.46 14.08-1.62 6.15 1.85 12.38 9 2.69 7.93-.92 16.08-3.62 8.15-9.77 11.62l-152.92 71.69q-11.93 5.46-23.24 4.58-11.3-.89-19.76-9.58l-76.54-70.69v10.77q-.46 10.15-5.39 14.23-4.92 4.07-13.84 4.07-9.85 0-15.62-6.27t-5.77-15.11v-64.23H345.77q-.54 14.07-8.96 28.65-8.43 14.58-16.19 21.35L521.15-233h157.54v70.46h-497Zm105.35-477.84q18.34-17.85 18.34-43.7 0-26.61-18.34-44.07-18.35-17.47-44.08-17.47-25.73 0-43.19 17.47-17.46 17.46-17.46 44.07 0 25.85 17.46 43.7 17.46 17.84 43.19 17.84 25.73 0 44.08-17.84ZM353.54-233h117.92l-167-317.54q-5.84 4.31-19.27 7.85-13.42 3.54-24.34 3L353.54-233Zm117.92 0Z"/></svg>