<svg xmlns="http://www.w3.org/2000/svg" height="48px" viewBox="0 -960 960 960" width="48px" fill="#CACACC"><path d="M389.38-546.62q-35.76-35.76-35.76-91 0-55.23 35.76-90.61 35.77-35.39 90.62-35.39t90.62 35.39q35.76 35.38 35.76 90.61 0 55.24-35.76 91-35.77 35.77-90.62 35.77t-90.62-35.77ZM185-185.38v-72.85q0-29.46 16.15-52.81 16.16-23.34 42.77-36.04 61.31-28.15 120.04-42.11 58.73-13.96 116.04-13.96 57.31 0 115.92 14.07 58.62 14.08 119.93 42 26.84 12.7 43 36.04Q775-287.69 775-258.23v72.85H185Zm43.77-43.77h502.46v-29.08q0-15.23-9.27-28.35-9.27-13.11-25.11-21.42-55-26.38-108.61-38.88-53.6-12.5-108.24-12.5-54.64 0-108.36 12.5T263.92-308q-16.84 8.31-26 21.42-9.15 13.12-9.15 28.35v29.08Zm310-349.31q23.85-23.85 23.85-58.77T538.77-696q-23.85-23.85-58.77-23.85T421.23-696q-23.85 23.85-23.85 58.77t23.85 58.77q23.85 23.84 58.77 23.84t58.77-23.84ZM480-637.23Zm0 408.08Z"/></svg>